HIERARCHY
ROOT Hips
{
  OFFSET 45.8883 96.5618 7.64562
  CHANNELS 6 Xposition Yposition Zposition Zrotation Xrotation Yrotation
  JOINT spine
  {
    OFFSET 0 7.96568 0.458067
    CHANNELS 3 Zrotation Xrotation Yrotation
    JOINT spine1
    {
      OFFSET 0 10.2431 0
      CHANNELS 3 Zrotation Xrotation Yrotation
      JOINT spine2
      {
        OFFSET 0 9.81475 0
        CHANNELS 3 Zrotation Xrotation Yrotation
        JOINT Neck
        {
          OFFSET 0 25.1986 1.20138
          CHANNELS 3 Zrotation Xrotation Yrotation
          JOINT Head
          {
            OFFSET 0 7.61315 0
            CHANNELS 3 Zrotation Xrotation Yrotation
            End Site
            {
              OFFSET 0 18.4281 -6.07733
            }
          }
        }
        JOINT RightShoulder
        {
          OFFSET -4.1327 10.5992 -0.575451
          CHANNELS 3 Zrotation Xrotation Yrotation
          JOINT RightArm
          {
            OFFSET 0 13.9018 0
            CHANNELS 3 Zrotation Xrotation Yrotation
            JOINT RightArmRoll
            {
              OFFSET 0 7.01789 0
              CHANNELS 3 Zrotation Xrotation Yrotation
              JOINT RightForeArm
              {
                OFFSET 0 20.4406 0
                CHANNELS 3 Zrotation Xrotation Yrotation
                JOINT RightForeArmRoll
                {
                  OFFSET 0 7.87516 0
                  CHANNELS 3 Zrotation Xrotation Yrotation
                  JOINT RightHand
                  {
                    OFFSET 0 15.8037 0
                    CHANNELS 3 Zrotation Xrotation Yrotation
                    End Site
                    {
                      OFFSET 0 0 0
                    }
                  }
                }
              }
            }
          }
        }
        JOINT LeftShoulder
        {
          OFFSET 4.1327 10.5992 -0.575451
          CHANNELS 3 Zrotation Xrotation Yrotation
          JOINT LeftArm
          {
            OFFSET 0 13.9018 0
            CHANNELS 3 Zrotation Xrotation Yrotation
            JOINT LeftArmRoll
            {
              OFFSET 0 7.01788 0
              CHANNELS 3 Zrotation Xrotation Yrotation
              JOINT LeftForeArm
              {
                OFFSET 0 20.4406 0
                CHANNELS 3 Zrotation Xrotation Yrotation
                JOINT LeftForeArmRoll
                {
                  OFFSET 0 7.87515 0
                  CHANNELS 3 Zrotation Xrotation Yrotation
                  JOINT LeftHand
                  {
                    OFFSET 0 15.8037 0
                    CHANNELS 3 Zrotation Xrotation Yrotation
                    End Site
                    {
                      OFFSET 0 0 0
                    }
                  }
                }
              }
            }
          }
        }
      }
    }
  }
  JOINT RightUpLeg
  {
    OFFSET -7.06048 -1.2947 -1.0861
    CHANNELS 3 Zrotation Xrotation Yrotation
    JOINT RightUpLegRoll
    {
      OFFSET 0 18.5308 0
      CHANNELS 3 Zrotation Xrotation Yrotation
      JOINT RightLeg
      {
        OFFSET 0 -22.9476 0
        CHANNELS 3 Zrotation Xrotation Yrotation
        JOINT RightLegRoll
        {
          OFFSET 0 23.0226 0
          CHANNELS 3 Zrotation Xrotation Yrotation
          JOINT RightFoot
          {
            OFFSET 0 19.1625 0
            CHANNELS 3 Zrotation Xrotation Yrotation
            JOINT RightToeBase
            {
              OFFSET 0 16.0188 0
              CHANNELS 3 Zrotation Xrotation Yrotation
              End Site
              {
                OFFSET 0.00678979 7.75782 -0.894206
              }
            }
          }
        }
      }
    }
  }
  JOINT LeftUpLeg
  {
    OFFSET 7.06048 -1.2947 -1.0861
    CHANNELS 3 Zrotation Xrotation Yrotation
    JOINT LeftUpLegRoll
    {
      OFFSET 0 18.5309 0
      CHANNELS 3 Zrotation Xrotation Yrotation
      JOINT LeftLeg
      {
        OFFSET 0 22.9475 0
        CHANNELS 3 Zrotation Xrotation Yrotation
        JOINT LeftLegRoll
        {
          OFFSET 0 23.2355 0
          CHANNELS 3 Zrotation Xrotation Yrotation
          JOINT LeftFoot
          {
            OFFSET 0 18.9496 0
            CHANNELS 3 Zrotation Xrotation Yrotation
            JOINT LeftToeBase
            {
              OFFSET 0 16.0188 0
              CHANNELS 3 Zrotation Xrotation Yrotation
              End Site
              {
                OFFSET -0.0304289 7.75782 -0.894206
              }
            }
          }
        }
      }
    }
  }
}
MOTION
Frames: 12
Frame Time: 0.00208333
55.5144 96.714 5.56015 -0.0217203 -4.62988 1.81517 0.228169 -0.338177 -0.249069 0.440256 3.32545 -0.525366 0.447169 4.97047 -0.533059 0.403072 8.83967 4.22882 -0.469407 11.6954 4.41238 75.0256 -4.41351 -3.81089 96.6537 19.5509 10.2766 -1.59028e-015 7.95139e-015 3.18055e-015 7.1633 16.3462 -2.06131 -2.81601e-006 -1.22641e-005 -3 8.0293 -4.95144 0.697677 -63.02 -2.97466 2.21097 -109.257 18.3498 0.199614 3.72345e-006 2.57484e-006 -4.18301e-007 -9.08653 11.6319 1.75063 -1.27226e-006 3.94522e-007 3 -8.02903 -4.95144 -0.697666 176.074 -3.57402 3.28177 180 7.01489e-015 178.695 179.583 8.02759 179.46 -7.74764e-007 -3.5291e-006 0.0803074 -18.4575 67.4676 19.1044 8.12679 25.2406 -3.47355 -173.753 -4.11629 -3.35389 4.5067e-006 -1.99009e-005 -1.22845 -3.36259 -5.28239 -0.0424385 -3.75384e-006 -3.03995e-006 -0.0645888 18.3525 67.454 -19.0826 -8.13016 25.233 3.48504 
55.5018 96.7115 5.56648 -0.0280453 -4.62363 1.80199 0.228676 -0.335091 -0.249402 0.442613 3.33162 -0.526229 0.449539 4.97663 -0.533977 0.381757 8.80124 4.2313 -0.462486 11.6545 4.40993 75.0131 -4.40939 -3.8083 96.6722 19.5553 10.2501 -1.98785e-015 3.18055e-015 3.18055e-015 7.17509 16.373 -2.06455 -2.81601e-006 -1.22641e-005 -3 8.0293 -4.95144 0.697677 -63.0059 -2.98442 2.21533 -109.262 18.3419 0.218325 3.72345e-006 2.57484e-006 -4.18301e-007 -9.09747 11.6953 1.75724 -1.27226e-006 3.94522e-007 3 -8.02903 -4.95144 -0.697666 176.098 -3.53692 3.2554 180 7.01489e-015 178.695 179.608 8.07857 179.455 -7.74764e-007 -3.5291e-006 0.0802572 -18.4513 67.4599 19.0981 8.12716 25.2464 -3.46563 -173.738 -4.09517 -3.36898 4.5067e-006 -1.99009e-005 -1.2285 -3.37098 -5.31659 -0.0427918 -3.75384e-006 -3.03995e-006 -0.065082 18.3579 67.4608 -19.0885 -8.13016 25.233 3.48504 
55.5052 96.713 5.57022 -0.0345296 -4.6184 1.78844 0.229164 -0.331837 -0.249636 0.444999 3.33812 -0.526917 0.451936 4.98313 -0.534723 0.36103 8.76315 4.23371 -0.455854 11.6137 4.40756 75.0009 -4.40537 -3.80579 96.6902 19.5599 10.2235 -1.19271e-014 3.18055e-015 1.59028e-015 7.18713 16.4004 -2.06784 -2.81601e-006 -1.22641e-005 -3 8.0293 -4.95144 0.697677 -62.9917 -2.99415 2.21967 -109.267 18.3338 0.238041 3.72345e-006 2.57484e-006 -4.18301e-007 -9.10942 11.759 1.76394 -1.27226e-006 3.94522e-007 3 -8.02903 -4.95144 -0.697666 176.122 -3.50164 3.2283 180 7.01489e-015 178.695 179.633 8.12854 179.45 -7.74764e-007 -3.5291e-006 0.0801824 -18.4452 67.4524 19.092 8.12743 25.2512 -3.45919 -173.723 -4.07592 -3.38451 4.5067e-006 -1.99009e-005 -1.22858 -3.37963 -5.34973 -0.04315 -3.75384e-006 -3.03995e-006 -0.0655585 18.3632 67.4675 -19.0943 -8.13016 25.233 3.48504 
55.4917 96.7086 5.55458 -0.0411249 -4.61389 1.77463 0.229637 -0.328465 -0.249802 0.447405 3.34485 -0.527484 0.454351 4.98987 -0.535348 0.340716 8.72531 4.23609 -0.449427 11.573 4.40523 74.989 -4.40142 -3.80332 96.7079 19.5644 10.1967 -8.74653e-015 4.77083e-015 -1.59028e-015 7.19934 16.4282 -2.07116 -2.81601e-006 -1.22641e-005 -3 8.0293 -4.95144 0.697677 -62.9774 -3.00386 2.22398 -109.272 18.3257 0.258459 3.72345e-006 2.57484e-006 -4.18301e-007 -9.12206 11.8231 1.77072 -1.27226e-006 3.94522e-007 3 -8.02903 -4.95144 -0.697666 176.146 -3.46763 3.2007 180 7.01489e-015 178.695 179.659 8.1778 179.446 -7.74764e-007 -3.5291e-006 0.0800906 -18.4393 67.445 19.086 8.12764 25.2551 -3.45378 -173.708 -4.05798 -3.40034 4.5067e-006 -1.99009e-005 -1.22867 -3.38847 -5.38214 -0.0435117 -3.75384e-006 -3.03995e-006 -0.0660231 18.3685 67.4741 -19.1002 -8.13016 25.233 3.48504 
55.4885 96.7116 5.56198 -0.0477832 -4.60978 1.76068 0.230103 -0.325027 -0.249929 0.449823 3.35172 -0.527981 0.456777 4.99673 -0.535903 0.32064 8.6876 4.23844 -0.443117 11.5322 4.40294 74.9773 -4.3975 -3.80088 96.7255 19.569 10.1699 4.37326e-015 4.77083e-015 1.59028e-015 7.21165 16.4562 -2.0745 -2.81601e-006 -1.22641e-005 -3 8.0293 -4.95144 0.697677 -62.963 -3.01355 2.22827 -109.276 18.3175 0.279279 3.72345e-006 2.57484e-006 -4.18301e-007 -9.13512 11.8872 1.77755 -1.27226e-006 3.94522e-007 3 -8.02903 -4.95144 -0.697666 176.171 -3.43435 3.1728 180 7.01489e-015 178.695 179.686 8.22663 179.441 -7.74764e-007 -3.5291e-006 0.0799889 -18.4334 67.4376 19.0801 8.12781 25.2587 -3.44896 -173.693 -4.04078 -3.41636 4.5067e-006 -1.99009e-005 -1.22877 -3.3974 -5.41412 -0.0438753 -3.75384e-006 -3.03995e-006 -0.0664811 18.3738 67.4807 -19.106 -8.13016 25.233 3.48504 
55.5078 96.7048 5.50802 -0.0544556 -4.60578 1.74668 0.230566 -0.321572 -0.250046 0.452243 3.35863 -0.528461 0.459206 5.00364 -0.536441 0.300625 8.64992 4.24079 -0.43684 11.4915 4.40066 74.9656 -4.3936 -3.79845 96.7431 19.5735 10.1431 2.38542e-015 4.77083e-015 3.18055e-015 7.22399 16.4842 -2.07786 -2.81601e-006 -1.22641e-005 -3 8.0293 -4.95144 0.697677 -62.9486 -3.02324 2.23257 -109.281 18.3094 0.300196 3.72345e-006 2.57484e-006 -4.18301e-007 -9.1483 11.9515 1.78439 -1.27226e-006 3.94522e-007 3 -8.02903 -4.95144 -0.697666 176.196 -3.40125 3.14484 180 7.01489e-015 178.695 179.713 8.27535 179.436 -7.74764e-007 -3.5291e-006 0.0798847 -18.4276 67.4303 19.0742 8.12796 25.2621 -3.44429 -173.677 -4.02377 -3.43241 4.5067e-006 -1.99009e-005 -1.22887 -3.40636 -5.446 -0.0442395 -3.75384e-006 -3.03995e-006 -0.0669374 18.379 67.4873 -19.1118 -8.13016 25.233 3.48504 
55.4787 96.7042 5.51456 -0.0610935 -4.60157 1.73277 0.231034 -0.318151 -0.250183 0.454658 3.36546 -0.528976 0.46163 5.01047 -0.537014 0.280496 8.61218 4.24315 -0.430509 11.4507 4.39837 74.9538 -4.38967 -3.796 96.7607 19.5781 10.1163 3.57812e-015 6.36111e-015 6.36111e-015 7.23629 16.5122 -2.0812 -2.81601e-006 -1.22641e-005 -3 8.0293 -4.95144 0.697677 -62.9343 -3.03294 2.23687 -109.285 18.3012 0.320911 3.72345e-006 2.57484e-006 -4.18301e-007 -9.16129 12.0156 1.79122 -1.27226e-006 3.94522e-007 3 -8.02903 -4.95144 -0.697666 176.221 -3.36778 3.11703 180 7.01489e-015 178.695 179.74 8.32429 179.431 -7.74764e-007 -3.5291e-006 0.0797855 -18.4217 67.423 19.0682 8.12814 25.2657 -3.43933 -173.662 -4.00638 -3.44838 4.5067e-006 -1.99009e-005 -1.22897 -3.41527 -5.47809 -0.0446028 -3.75384e-006 -3.03995e-006 -0.067397 18.3843 67.4939 -19.1176 -8.13016 25.233 3.48504 
55.458 96.7054 5.57272 -0.0676478 -4.59685 1.71903 0.231512 -0.314813 -0.250369 0.457058 3.37213 -0.529577 0.464041 5.01714 -0.537673 0.260078 8.57426 4.24555 -0.424038 11.4099 4.39604 74.9418 -4.3857 -3.79352 96.7785 19.5826 10.0895 1.19271e-014 3.18055e-015 6.36111e-015 7.24847 16.5398 -2.08452 -2.81601e-006 -1.22641e-005 -3 8.0293 -4.95144 0.697677 -62.92 -3.04266 2.24119 -109.29 18.2931 0.341121 3.72345e-006 2.57484e-006 -4.18301e-007 -9.1738 12.0796 1.798 -1.27226e-006 3.94522e-007 3 -8.02903 -4.95144 -0.697666 176.245 -3.3334 3.08958 180 7.01489e-015 178.695 179.766 8.37375 179.426 -7.74764e-007 -3.5291e-006 0.0796985 -18.4157 67.4156 19.0622 8.12836 25.2699 -3.43362 -173.646 -3.98807 -3.46413 4.5067e-006 -1.99009e-005 -1.22906 -3.42405 -5.51071 -0.0449637 -3.75384e-006 -3.03995e-006 -0.067865 18.3897 67.5005 -19.1235 -8.13016 25.233 3.48504 
55.4694 96.6994 5.55815 -0.074069 -4.59131 1.7056 0.232005 -0.311609 -0.250633 0.459437 3.37853 -0.530318 0.466431 5.02354 -0.538471 0.239195 8.53607 4.24799 -0.417341 11.3691 4.39366 74.9295 -4.38165 -3.79098 96.7967 19.5871 10.063 3.18055e-015 1.59028e-015 4.77083e-015 7.26045 16.567 -2.0878 -2.81601e-006 -1.22641e-005 -3 8.0293 -4.95144 0.697677 -62.9058 -3.05239 2.24553 -109.295 18.285 0.360523 3.72345e-006 2.57484e-006 -4.18301e-007 -9.18554 12.1432 1.80471 -1.27226e-006 3.94522e-007 3 -8.02903 -4.95144 -0.697666 176.269 -3.29756 3.06272 180 7.01489e-015 178.695 179.791 8.42402 179.422 -7.74764e-007 -3.5291e-006 0.0796311 -18.4097 67.408 19.0561 8.12866 25.2749 -3.42674 -173.631 -3.96826 -3.47952 4.5067e-006 -1.99009e-005 -1.22912 -3.43263 -5.54417 -0.0453208 -3.75384e-006 -3.03995e-006 -0.0683465 18.395 67.5072 -19.1294 -8.13016 25.233 3.48504 
55.4191 96.7027 5.61271 -0.0803076 -4.58465 1.69257 0.23252 -0.308589 -0.251005 0.461784 3.38456 -0.53125 0.468792 5.02957 -0.539459 0.217672 8.49751 4.2505 -0.410333 11.3283 4.3912 74.9168 -4.37749 -3.78837 96.8153 19.5915 10.0366 1.59028e-015 9.54166e-015 4.77083e-015 7.27217 16.5936 -2.09103 -2.81601e-006 -1.22641e-005 -3 8.0293 -4.95144 0.697677 -62.8918 -3.06217 2.2499 -109.3 18.2771 0.378817 3.72345e-006 2.57484e-006 -4.18301e-007 -9.19621 12.2064 1.81131 -1.27226e-006 3.94522e-007 3 -8.02903 -4.95144 -0.697666 176.293 -3.25971 3.03667 180 7.01489e-015 178.696 179.816 8.47543 179.417 -7.74764e-007 -3.5291e-006 0.0795907 -18.4035 67.4002 19.0498 8.12906 25.2813 -3.41822 -173.617 -3.9464 -3.49443 4.5067e-006 -1.99009e-005 -1.22916 -3.44092 -5.57879 -0.0456726 -3.75384e-006 -3.03995e-006 -0.0688465 18.4005 67.514 -19.1353 -8.13016 25.233 3.48504 
55.4095 96.7008 5.60135 -0.0863139 -4.57657 1.68006 0.233063 -0.305804 -0.251514 0.464092 3.39013 -0.532426 0.471116 5.03513 -0.540689 0.195334 8.45847 4.25309 -0.402928 11.2874 4.38865 74.9034 -4.3732 -3.78566 96.8345 19.5959 10.0104 4.77083e-015 0 4.77083e-015 7.28354 16.6193 -2.0942 -2.81601e-006 -1.22641e-005 -3 8.0293 -4.95144 0.697677 -62.8779 -3.07199 2.25432 -109.305 18.2692 0.3957 3.72345e-006 2.57484e-006 -4.18301e-007 -9.20551 12.2691 1.81779 -1.27226e-006 3.94522e-007 3 -8.02903 -4.95144 -0.697666 176.315 -3.21931 3.01164 180 7.01489e-015 178.696 179.838 8.52829 179.412 -7.74764e-007 -3.5291e-006 0.0795846 -18.3971 67.3922 19.0433 8.1296 25.2892 -3.40764 -173.603 -3.92192 -3.50873 4.5067e-006 -1.99009e-005 -1.22917 -3.44885 -5.61489 -0.0460177 -3.75384e-006 -3.03995e-006 -0.06937 18.406 67.5209 -19.1413 -8.13016 25.233 3.48504 
55.4358 96.6942 5.55917 -0.0920378 -4.56675 1.66817 0.233639 -0.303302 -0.25219 0.466351 3.39512 -0.533897 0.473397 5.04012 -0.542214 0.172006 8.41884 4.25577 -0.39504 11.2464 4.38599 74.8895 -4.36874 -3.78283 96.8543 19.6001 9.98461 -1.23246e-014 4.77083e-015 1.59028e-015 7.2945 16.644 -2.09729 -2.81601e-006 -1.22641e-005 -3 8.0293 -4.95144 0.697677 -62.8643 -3.08186 2.2588 -109.311 18.2615 0.410871 3.72345e-006 2.57484e-006 -4.18301e-007 -9.21314 12.3311 1.8241 -1.27226e-006 3.94522e-007 3 -8.02903 -4.95144 -0.697666 176.336 -3.17582 2.98785 180 7.01489e-015 178.696 179.86 8.58289 179.408 -7.74764e-007 -3.5291e-006 0.0796201 -18.3904 67.3839 19.0365 8.13029 25.299 -3.39454 -173.589 -3.89427 -3.52228 4.5067e-006 -1.99009e-005 -1.22914 -3.45635 -5.65278 -0.0463546 -3.75384e-006 -3.03995e-006 -0.0699221 18.4117 67.5279 -19.1474 -8.13016 25.233 3.48504 
